<svg width="38" height="43" viewBox="0 0 38 43" fill="none" xmlns="http://www.w3.org/2000/svg">
<path d="M24.852 3.32199L11.548 9.70999C10.5439 10.1994 9.4018 10.3279 8.314 10.074C7.85503 9.96016 7.39124 9.86674 6.924 9.79399C3.274 9.37999 1 12.268 1 15.59V17.414C1 20.734 3.274 23.624 6.924 23.206C7.39173 23.1369 7.85566 23.0441 8.314 22.928C9.40203 22.6747 10.5441 22.8039 11.548 23.294L24.852 29.68C27.906 31.146 29.434 31.88 31.136 31.308C32.84 30.736 33.424 29.51 34.592 27.058C36.1771 23.7648 37.0001 20.1568 37.0001 16.502C37.0001 12.8472 36.1771 9.23923 34.592 5.94599C33.424 3.49399 32.84 2.26599 31.136 1.69599C29.434 1.12399 27.906 1.85399 24.852 3.32199Z" stroke="currentColor" stroke-width="1.5" stroke-linecap="round" stroke-linejoin="round"/>
<path d="M9.99997 22.5V10.5M17.916 39.04L14.934 41.5C8.20997 36.168 9.03197 33.626 9.03197 23.5H11.3C12.22 29.22 14.39 31.932 17.386 33.894C19.23 35.102 19.61 37.644 17.916 39.04Z" stroke="currentColor" stroke-width="1.5" stroke-linecap="round" stroke-linejoin="round"/>
</svg>
