<svg width="40" height="30" viewBox="0 0 40 30" fill="none" xmlns="http://www.w3.org/2000/svg">
<path fill-rule="evenodd" clip-rule="evenodd" d="M38 0C38.5304 0 39.0391 0.210714 39.4142 0.585787C39.7893 0.96086 40 1.46957 40 2C40 2.53043 39.7893 3.03914 39.4142 3.41421C39.0391 3.78929 38.5304 4 38 4V28C38 28.5304 37.7893 29.0391 37.4142 29.4142C37.0391 29.7893 36.5304 30 36 30C35.4696 30 34.9609 29.7893 34.5858 29.4142C34.2107 29.0391 34 28.5304 34 28V24H27C26.2044 24 25.4413 23.6839 24.8787 23.1213C24.3161 22.5587 24 21.7956 24 21V12H6V28C6 28.5304 5.78929 29.0391 5.41421 29.4142C5.03914 29.7893 4.53043 30 4 30C3.46957 30 2.96086 29.7893 2.58579 29.4142C2.21071 29.0391 2 28.5304 2 28V4C1.46957 4 0.960859 3.78929 0.585786 3.41421C0.210714 3.03914 0 2.53043 0 2C0 1.46957 0.210714 0.96086 0.585786 0.585787C0.960859 0.210714 1.46957 0 2 0H38ZM34 14H28V18H34V14ZM34 4H28V8H34V4Z" fill="currentColor"/>
</svg>
