<svg width="39" height="34" viewBox="0 0 39 34" fill="none" xmlns="http://www.w3.org/2000/svg">
<path d="M14 17C14 10.3726 19.3726 5 26 5C32.6274 5 38 10.3726 38 17C38 23.6274 32.6274 29 26 29C19.3726 29 14 23.6274 14 17Z" fill="white" fill-opacity="0.25"/>
<path d="M13.3999 17C13.3999 15.3454 13.7258 13.7069 14.359 12.1782C14.9922 10.6495 15.9203 9.2605 17.0904 8.09048C18.2604 6.92046 19.6494 5.99235 21.1781 5.35914C22.7068 4.72593 24.3452 4.40002 25.9999 4.40002C27.6546 4.40002 29.293 4.72593 30.8217 5.35914C32.3504 5.99235 33.7394 6.92046 34.9094 8.09048C36.0795 9.2605 37.0076 10.6495 37.6408 12.1782C38.274 13.7069 38.5999 15.3454 38.5999 17C38.5999 20.3418 37.2724 23.5466 34.9094 25.9096C32.5465 28.2725 29.3416 29.6 25.9999 29.6C22.6582 29.6 19.4533 28.2725 17.0904 25.9096C14.7274 23.5466 13.3999 20.3418 13.3999 17Z" stroke="currentColor" stroke-opacity="0.25" stroke-width="0.6"/>
<path d="M14 30.856C16.4323 32.2605 19.1914 32.9999 22.0001 33C24.8087 33.0001 27.5679 32.2609 30.0004 30.8566C32.4328 29.4523 34.4527 27.4325 35.857 25.0002C37.2614 22.5678 38.0007 19.8087 38.0007 17C38.0007 14.1913 37.2614 11.4322 35.857 8.99982C34.4527 6.56747 32.4328 4.54766 30.0004 3.14339C27.5679 1.73912 24.8087 0.999893 22.0001 1C19.1914 1.00011 16.4323 1.73955 14 3.144" stroke="white" stroke-width="1.2"/>
<path d="M1.99991 17L1.06191 16.25L0.461914 17L1.06191 17.75L1.99991 17ZM19.9999 18.2C20.3182 18.2 20.6234 18.0736 20.8484 17.8485C21.0735 17.6235 21.1999 17.3183 21.1999 17C21.1999 16.6817 21.0735 16.3765 20.8484 16.1515C20.6234 15.9264 20.3182 15.8 19.9999 15.8V18.2ZM9.06191 6.25L1.06191 16.25L2.93791 17.75L10.9379 7.75L9.06191 6.25ZM1.06191 17.75L9.06191 27.75L10.9379 26.25L2.93791 16.25L1.06191 17.75ZM1.99991 18.2H19.9999V15.8H1.99991V18.2Z" fill="white"/>
</svg>
