<svg width="48" height="49" viewBox="0 0 48 49" fill="none" xmlns="http://www.w3.org/2000/svg">
<path d="M2.54456 0.666748L0.120117 3.08954L4.39106 10.4705L7.1608 10.0645L24.0673 26.9613L22.6252 28.3452C21.8866 29.0833 21.8866 30.2015 22.6252 30.9396L23.3749 31.6906C24.1135 32.4287 25.2435 32.4287 25.7975 31.6906L27.9911 33.8809C27.8064 34.988 27.9911 36.3037 28.9143 37.2263L38.8965 47.1444C40.9276 49.1742 44.2513 49.1742 46.2825 47.1444C48.6829 44.9302 48.6608 41.6198 46.6296 39.5901L36.7047 29.6129C35.7815 28.6903 34.4649 28.3212 33.357 28.6903L30.9326 26.5C31.4865 25.7619 31.4865 24.6326 30.9326 24.0772L30.2401 23.3871C30.0723 23.2122 29.8707 23.073 29.6477 22.9779C29.4246 22.8828 29.1846 22.8338 28.942 22.8338C28.6995 22.8338 28.4595 22.8828 28.2364 22.9779C28.0133 23.073 27.8118 23.2122 27.644 23.3871L26.4327 24.5976L9.52616 7.70261L9.92869 4.93477L2.54456 0.666748ZM38.5512 0.72395C34.9081 0.421332 30.0776 2.83489 27.8175 4.93292C25.0367 7.71184 25.4909 11.3451 27.7012 14.8529L23.7792 18.774L26.549 21.8869C28.0262 20.5952 30.205 20.5952 31.6822 21.8869L32.4338 22.6361L32.6073 22.8095L34.223 21.1949C37.5615 23.1564 41.0366 23.4387 43.6863 20.7908C46.2714 18.392 49.0744 12.4762 47.7818 8.97029L42.5895 14.3325C41.8509 15.0706 40.7319 15.0706 39.9933 14.3325L34.6255 8.97029C34.4505 8.80254 34.3112 8.60115 34.2161 8.37823C34.1209 8.1553 34.0719 7.91545 34.0719 7.67309C34.0719 7.43073 34.1209 7.19088 34.2161 6.96795C34.3112 6.74503 34.4505 6.54364 34.6255 6.37589L39.9952 1.01365C39.5335 0.851271 39.0719 0.768236 38.5512 0.72395ZM18.2398 23.7321L11.5444 30.4211C10.8249 30.2614 10.0896 30.184 9.35259 30.1904C4.1824 30.1904 0.120117 34.25 0.120117 39.4166C0.120117 44.5832 4.1824 48.6428 9.35259 48.6428C14.5228 48.6428 18.5851 44.5832 18.5851 39.4166C18.5851 38.47 18.4355 37.5603 18.1807 36.706L22.1045 32.7848L21.5284 32.0357C20.0512 30.5595 20.0623 28.3231 21.3548 26.845L18.2398 23.7321ZM32.5501 32.1519C32.7809 32.1519 32.9988 32.1962 33.1834 32.3826L44.0907 43.2805C44.46 43.6496 44.46 44.2363 44.0907 44.6054C43.7214 44.9744 43.1305 44.9744 42.7612 44.6054L31.8577 33.7075C31.4884 33.3384 31.4884 32.7516 31.8577 32.3826C32.0423 32.1981 32.3193 32.1519 32.5501 32.1519ZM10.623 34.6282L14.1424 38.1471L12.872 42.9318L8.08405 44.2013L4.56278 40.6824L5.83317 35.8977L10.623 34.6282Z" fill="currentColor"/>
</svg>
