<svg width="40" height="41" viewBox="0 0 40 41" fill="none" xmlns="http://www.w3.org/2000/svg">
<path d="M20 12.8334C22.1218 12.8334 24.1566 13.6762 25.6569 15.1765C27.1572 16.6768 28 18.7116 28 20.8334C28 22.9551 27.1572 24.9899 25.6569 26.4902C24.1566 27.9905 22.1218 28.8334 20 28.8334C17.8783 28.8334 15.8435 27.9905 14.3432 26.4902C12.8429 24.9899 12 22.9551 12 20.8334C12 18.7116 12.8429 16.6768 14.3432 15.1765C15.8435 13.6762 17.8783 12.8334 20 12.8334ZM20 16.8334C18.9392 16.8334 17.9217 17.2548 17.1716 18.0049C16.4215 18.7551 16 19.7725 16 20.8334C16 21.8942 16.4215 22.9117 17.1716 23.6618C17.9217 24.4119 18.9392 24.8334 20 24.8334C21.0609 24.8334 22.0783 24.4119 22.8285 23.6618C23.5786 22.9117 24 21.8942 24 20.8334C24 19.7725 23.5786 18.7551 22.8285 18.0049C22.0783 17.2548 21.0609 16.8334 20 16.8334ZM16 40.8334C15.5 40.8334 15.08 40.4734 15 39.9934L14.26 34.6934C13 34.1934 11.92 33.5134 10.88 32.7134L5.90003 34.7334C5.46003 34.8934 4.92003 34.7334 4.68003 34.2934L0.680029 27.3734C0.55762 27.1673 0.514467 26.9237 0.558638 26.6881C0.60281 26.4525 0.731282 26.2411 0.920029 26.0934L5.14003 22.7734L5.00003 20.8334L5.14003 18.8334L0.920029 15.5734C0.731282 15.4256 0.60281 15.2142 0.558638 14.9786C0.514467 14.7431 0.55762 14.4994 0.680029 14.2934L4.68003 7.37337C4.92003 6.93337 5.46003 6.75337 5.90003 6.93337L10.88 8.93337C11.92 8.15337 13 7.47337 14.26 6.97337L15 1.67337C15.08 1.19337 15.5 0.833374 16 0.833374H24C24.5 0.833374 24.92 1.19337 25 1.67337L25.74 6.97337C27 7.47337 28.08 8.15337 29.12 8.93337L34.1 6.93337C34.54 6.75337 35.08 6.93337 35.32 7.37337L39.32 14.2934C39.58 14.7334 39.46 15.2734 39.08 15.5734L34.86 18.8334L35 20.8334L34.86 22.8334L39.08 26.0934C39.46 26.3934 39.58 26.9334 39.32 27.3734L35.32 34.2934C35.08 34.7334 34.54 34.9134 34.1 34.7334L29.12 32.7334C28.08 33.5134 27 34.1934 25.74 34.6934L25 39.9934C24.92 40.4734 24.5 40.8334 24 40.8334H16ZM18.5 4.83337L17.76 10.0534C15.36 10.5534 13.24 11.8334 11.7 13.6134L6.88003 11.5334L5.38003 14.1334L9.60003 17.2334C8.80003 19.5667 8.80003 22.1 9.60003 24.4334L5.36003 27.5534L6.86003 30.1534L11.72 28.0734C13.26 29.8334 15.36 31.1134 17.74 31.5934L18.48 36.8334H21.52L22.26 31.6134C24.64 31.1134 26.74 29.8334 28.28 28.0734L33.14 30.1534L34.64 27.5534L30.4 24.4534C31.2 22.1134 31.2 19.5734 30.4 17.2334L34.62 14.1334L33.12 11.5334L28.3 13.6134C26.7285 11.794 24.5967 10.5487 22.24 10.0734L21.5 4.83337H18.5Z" fill="currentColor"/>
</svg>
