<svg width="48" height="39" viewBox="0 0 48 39" fill="none" xmlns="http://www.w3.org/2000/svg">
<path d="M11 10.2084C11 9.42044 11.1552 8.64023 11.4567 7.91227C11.7583 7.18432 12.2002 6.52288 12.7574 5.96573C13.3145 5.40858 13.9759 4.96662 14.7039 4.6651C15.4319 4.36357 16.2121 4.20837 17 4.20837C17.7879 4.20837 18.5681 4.36357 19.2961 4.6651C20.0241 4.96662 20.6855 5.40858 21.2426 5.96573C21.7998 6.52288 22.2417 7.18432 22.5433 7.91227C22.8448 8.64023 23 9.42044 23 10.2084C23 11.7997 22.3679 13.3258 21.2426 14.451C20.1174 15.5762 18.5913 16.2084 17 16.2084C15.4087 16.2084 13.8826 15.5762 12.7574 14.451C11.6321 13.3258 11 11.7997 11 10.2084ZM17 0.208374C14.3478 0.208374 11.8043 1.26194 9.92893 3.13731C8.05357 5.01267 7 7.55621 7 10.2084C7 12.8605 8.05357 15.4041 9.92893 17.2794C11.8043 19.1548 14.3478 20.2084 17 20.2084C19.6522 20.2084 22.1957 19.1548 24.0711 17.2794C25.9464 15.4041 27 12.8605 27 10.2084C27 7.55621 25.9464 5.01267 24.0711 3.13731C22.1957 1.26194 19.6522 0.208374 17 0.208374ZM31 0.208374H29V4.20837H31C31.7879 4.20837 32.5681 4.36357 33.2961 4.6651C34.0241 4.96663 34.6855 5.40858 35.2426 5.96573C35.7998 6.52288 36.2417 7.18432 36.5433 7.91227C36.8448 8.64023 37 9.42044 37 10.2084C37 10.9963 36.8448 11.7765 36.5433 12.5045C36.2417 13.2324 35.7998 13.8939 35.2426 14.451C34.6855 15.0082 34.0241 15.4501 33.2961 15.7517C32.5681 16.0532 31.7879 16.2084 31 16.2084H29V20.2084H31C33.6522 20.2084 36.1957 19.1548 38.0711 17.2794C39.9464 15.4041 41 12.8605 41 10.2084C41 7.55621 39.9464 5.01267 38.0711 3.13731C36.1957 1.26194 33.6522 0.208374 31 0.208374ZM0 34.2084C0 31.5562 1.05357 29.0127 2.92893 27.1373C4.8043 25.2619 7.34784 24.2084 10 24.2084H24C26.6522 24.2084 29.1957 25.2619 31.0711 27.1373C32.9464 29.0127 34 31.5562 34 34.2084V38.2084H30V34.2084C30 32.6171 29.3679 31.091 28.2426 29.9657C27.1174 28.8405 25.5913 28.2084 24 28.2084H10C8.4087 28.2084 6.88258 28.8405 5.75736 29.9657C4.63214 31.091 4 32.6171 4 34.2084V38.2084H0V34.2084ZM48 34.2084C48 32.8952 47.7413 31.5948 47.2388 30.3815C46.7362 29.1683 45.9997 28.0659 45.0711 27.1373C44.1425 26.2087 43.0401 25.4721 41.8268 24.9696C40.6136 24.467 39.3132 24.2084 38 24.2084H36V28.2084H38C39.5913 28.2084 41.1174 28.8405 42.2426 29.9657C43.3679 31.091 44 32.6171 44 34.2084V38.2084H48V34.2084Z" fill="currentColor"/>
</svg>
